<svg xmlns="http://www.w3.org/2000/svg" viewBox="0 0 130.46 129.55"><defs><style>.cls-1{fill:#450a5a;}</style></defs><g id="Layer_2" data-name="Layer 2"><g id="Layer_1-2" data-name="Layer 1"><path class="cls-1" d="M63.38,8.4C71.31,3.06,82.93-.19,94,0c10.44.19,20.51,3.41,26.89,10.75a31.23,31.23,0,0,1,5.13,8.36,52.29,52.29,0,0,1,3.06,10.22A85.69,85.69,0,0,1,130.06,53a147.7,147.7,0,0,1-5.28,27.73c-1.88,6.57-7.48,22.91-14.69,34.65-4.73,7.72-10.29,13.56-16.3,13.94a10.43,10.43,0,0,1-8.08-3.3,29.32,29.32,0,0,1-5.95-9.26l-.05-.1-2.35-6c-.32-.83-.73-1.94-1.17-3.15-2.26-6.21-5.59-15.32-10.39-16.48-4-1-7.22,6.93-9.2,11.79-.24.59-.47,1.14-.88,2.1-.21.49-.69,1.68-1.23,3-3.21,7.91-8.64,21.32-16.37,21.55-2.67.09-5.29-1.08-7.85-3.43A38,38,0,0,1,23.5,117c-1.48-2.55-3-5.55-4.64-8.89s-3.09-6.72-4.63-10.49a250.52,250.52,0,0,1-9-25.43C2.47,62.55.33,52.12,0,42.22a57.58,57.58,0,0,1,2-17.63A36.72,36.72,0,0,1,9.23,10.86c6.49-7.56,15-10.61,24-10.8C43.63-.15,54.57,3.52,63.38,8.4ZM12.4,40a39.12,39.12,0,0,1,6.94-17A30.61,30.61,0,0,1,33,12.83l1.86,4.74a25.66,25.66,0,0,0-11.4,8.57,33.91,33.91,0,0,0-6,14.75l-5-.86ZM110.55,51h-.24a7.81,7.81,0,0,0-7.62-7.62v-.25a7.83,7.83,0,0,0,7.62-7.62h.24a7.81,7.81,0,0,0,7.62,7.61v.25A7.81,7.81,0,0,0,110.55,51ZM92.65,56.4h-.2a6.22,6.22,0,0,0-6.07-6.08v-.2a6.22,6.22,0,0,0,6.07-6.07h.2a6.22,6.22,0,0,0,6.07,6.08v.2a6.22,6.22,0,0,0-6.07,6.07Zm4.44-18H96.7A11.37,11.37,0,0,0,93.14,30a11.36,11.36,0,0,0-8.32-3.56v-.39a11.41,11.41,0,0,0,8.32-3.56,11.41,11.41,0,0,0,3.56-8.32h.39a11.41,11.41,0,0,0,3.56,8.32A11.4,11.4,0,0,0,109,26.09v.39A11.37,11.37,0,0,0,100.65,30,11.41,11.41,0,0,0,97.09,38.36ZM67.8,11.62c5.06,3.63,6.76,5.37,9.73,9.24A69.87,69.87,0,0,1,64.68,15.1c-.83-.49-1.62-1-2.44-1.48-8.37-4.88-19-8.68-28.91-8.47-7.6.16-14.81,2.7-20.23,9A31.53,31.53,0,0,0,7,26,52.31,52.31,0,0,0,5.12,42.08c.28,9.37,2.35,19.39,5,28.76a247.35,247.35,0,0,0,8.77,24.91c1.49,3.62,3,7,4.52,10.21s3,6,4.46,8.53v0a33.11,33.11,0,0,0,5.8,7.85c1.55,1.43,3,2.14,4.26,2.1,4.39-.13,9-11.61,11.78-18.39.41-1,.78-1.92,1.29-3.11.11-.24.45-1.07.82-2C54.48,94.56,58.71,84.14,67,86.14c7.45,1.8,11.33,12.44,14,19.69.39,1.08.75,2.07,1.13,3l2.35,5.94h0a24.28,24.28,0,0,0,4.79,7.55,5.59,5.59,0,0,0,4.23,1.88c4-.26,8.34-5.09,12.28-11.5,6.9-11.25,12.3-27,14.12-33.4A142.07,142.07,0,0,0,125,52.59a80.06,80.06,0,0,0-.86-22.25,46.81,46.81,0,0,0-2.73-9.22,26.33,26.33,0,0,0-4.3-7c-5.33-6.14-14-8.83-23.12-9-9.4-.17-19.15,2.34-26.16,6.53Z"/></g></g></svg>