<svg xmlns="http://www.w3.org/2000/svg" viewBox="0 0 121.14 128.79"><defs><style>.cls-1{fill:#450a5a;}</style></defs><g id="Layer_2" data-name="Layer 2"><g id="Layer_1-2" data-name="Layer 1"><path class="cls-1" d="M60.52,117c-3.66,5.94-8.31,10.11-15.14,11.3a21.08,21.08,0,0,1-21.31-9,12.93,12.93,0,0,0-4.95-4.11c-5-2.4-8.22-6-9.37-11.54a7.68,7.68,0,0,0-1.93-3.94c-5.26-4.82-6.73-11-4.35-18a7.1,7.1,0,0,0-.33-5C-.6,69.32-1.12,62,2.22,54.3c.84-1.93.7-4.38,1.77-6.12a64.65,64.65,0,0,1,8-10.85c1.57-1.65,2.69-2.52,2.38-5.14-1.22-10.47,3.91-17.69,14-20.55A5.56,5.56,0,0,0,31.13,10c10-13.13,19.26-13.35,29.42-.32L62.83,6.7c6.94-9,19.26-8.77,25.47.71a11,11,0,0,0,6.89,4.94c8,2.25,12.72,10.44,11.63,19.77-.3,2.54.24,3.79,2.4,5.12a17.83,17.83,0,0,1,8.32,12.51,23.9,23.9,0,0,0,1.49,4.9c3.23,7.51,2.63,14.76-1,22a7,7,0,0,0-.38,5c2.44,7.09,1,12.91-4.62,18.25a7.09,7.09,0,0,0-1.63,3.68c-1.13,5.69-4.4,9.46-9.71,11.7a8.81,8.81,0,0,0-3.92,2.83c-9.06,14.05-26.52,14.37-36,.57C61.44,118.19,61.1,117.78,60.52,117Zm1.72-21.73c3.14-2.24,5.6-4.18,8.26-5.77.83-.48,2.24,0,3.38.07a16.74,16.74,0,0,1-1.82,2.79c-2.56,2.63-5.94,4.73-7.73,7.78-4.94,8.42-1,19.45,8,23.62,8.28,3.87,18.42.43,21.89-7.52a36.54,36.54,0,0,1-5.36-2.53c-.83-.55-1.1-1.94-1.62-3,1,0,2-.08,3,0,.39,0,.75.4,1.14.58,7.93,3.69,16.27-1.17,16.66-9.9a4.54,4.54,0,0,1,2.86-4.52c4.71-2.55,5.83-10,3.07-13.87-4.15,1-8,2-11.81,2.62-.62.1-1.48-1.27-2.24-2a8.22,8.22,0,0,1,2.41-1.23c8.72-1,14.27-6.42,15.21-15.25.91-8.5-3.28-15.74-6.14-23.27-.51-1.35-2-2.43-3.24-3.37C100,34.43,89.69,37.28,84.34,47c-.52,1-1.7,1.53-2.57,2.28-.15-1.23-.79-2.66-.39-3.67a17,17,0,0,1,11.7-10.56c3.11-.84,6.45-.83,10-1.24,1.49-5.94.17-11.24-4.32-15.58-4-3.88-9.79-4.51-15.23-1.93-.65.31-1.24,1-1.87,1a9.2,9.2,0,0,1-2.54-.64c.29-.72.38-1.79.91-2.11,2-1.22,4.23-2.2,6.35-3.27C83.82,6,79.48,3.17,74.59,3.56,69.2,4,63.71,8.05,63.17,14.21,62.33,23.77,63,33.47,63,43.27a7.62,7.62,0,0,1,2.28-.93,35.12,35.12,0,0,1,4.34.27,28.5,28.5,0,0,0-2.86,2.85c-1.57,2-4.21,4.16-4.27,6.3C62.06,66.08,62.24,80.42,62.24,95.28Zm-3.35,0V90.72c0-12.06-.1-24.13,0-36.19C59,49.9,58.06,46.3,53,44.91c-.67-.19-1.06-1.39-1.58-2.11.86-.33,1.77-1,2.57-.91a28.82,28.82,0,0,1,4.73,1.41c0-9.12.46-18-.23-26.82-.26-3.36-2.5-7.15-5-9.63C47.46.72,37.94,3.29,34.82,11.38c2.06,1,4.19,1.87,6.12,3.06.58.36.63,1.6.92,2.43a8.17,8.17,0,0,1-2.6.3,16.28,16.28,0,0,1-2.7-1.3,13.11,13.11,0,0,0-14.71,2.81,14.46,14.46,0,0,0-3.19,15.61,45.89,45.89,0,0,1,6.31,0c7.29,1,12.35,5.09,15.06,11.92.31.79-.33,2-.52,3A20.27,20.27,0,0,1,37,47.55c-.39-.34-.46-1-.73-1.54A15.66,15.66,0,0,0,6.82,50.9c-.29,1.67-1.16,3.23-1.43,4.89-.66,4.18-2,8.48-1.52,12.57.9,8.07,7,13.65,13.91,14.18,1.18.09,2.29.94,3.44,1.44-1.27.62-2.66,2-3.77,1.74a104.32,104.32,0,0,1-10.25-3C4.17,88.1,5.65,94,11.14,97.49A4.24,4.24,0,0,1,12.93,100c1.78,11.58,7.45,14.92,18.18,10.68.8-.32,1.94.19,2.92.31-.5.91-.77,2.18-1.54,2.66a55.73,55.73,0,0,1-6,2.85c3.89,6.23,9.29,9.28,16.31,8.77,7.45-.55,12.56-4.68,15.12-11.65,3-8.1-.49-16.08-8.72-21.16-.9-.56-1.39-1.78-2.08-2.69,1.24-.08,2.77-.65,3.68-.13C53.4,91.09,55.74,93,58.89,95.27Z"/><path class="cls-1" d="M91,63.48c1.65.18,3.32.3,5,.58a10.71,10.71,0,0,1,2.15.83c-.41.81-.87,2.32-1.22,2.3-2.44-.16-4.85-.64-7.27-1-1.8-.28-3.72-1.13-5.38-.77-5.52,1.18-10.56.63-15-3.06-.77-.66-.88-2.11-1.29-3.19,1.09.15,2.47-.07,3.22.52C76,63.4,81,63.42,86.16,61c4.59-2.19,7.49-5.63,7.08-11.17-.06-.75.79-1.57,1.22-2.36.69.78,1.85,1.48,2,2.35C97.3,55,94.64,58.83,91,63.48Z"/><path class="cls-1" d="M75.29,31a29.78,29.78,0,0,1,1.41,3.36,9.79,9.79,0,0,1,.14,2.55c-.89-.12-2.12.07-2.62-.44-1-1-2.19-2.42-2.09-3.55.38-4.07-.63-7.72-2.06-11.41a6.39,6.39,0,0,1,.12-3.79c.22-.76,1.24-1.28,1.91-1.9a17.9,17.9,0,0,1,1.28,2.3c.9,2.43,1.18,5.31,2.7,7.23,1.87,2.38,4.81,2.83,7.76,1,.58-.35,1.67.15,2.53.26-.29.85-.43,2.35-.9,2.46C82.29,29.88,79.05,30.35,75.29,31Z"/><path class="cls-1" d="M87.68,89.08c1.16-8.79-7.29-14.51-15-10.89-.79.37-1.93,0-2.91,0,.39-.94.53-2.18,1.22-2.78,3.35-2.93,9.43-2.75,14,.47S92.15,83.31,91.54,89c-.14,1.36-1.52,2.58-2.32,3.87C88.7,91.59,88.19,90.33,87.68,89.08Z"/><path class="cls-1" d="M87,100.24c1.71.25,2.91.1,3.65.61a24.3,24.3,0,0,1,3.22,3.27,15.12,15.12,0,0,1-3.74,0c-4.78-1.22-8.72.78-10.53,5.38-.28.7-1.25,1.13-1.9,1.68-.47-.8-1.54-2-1.31-2.35,1.41-2.34,2.78-4.92,4.82-6.6C82.83,100.91,85.42,100.74,87,100.24Z"/><path class="cls-1" d="M27.37,47.51a7.93,7.93,0,0,1,.55,2.3C27.43,55.36,30.42,58.75,35,61c4.82,2.33,9.61,2.4,14.26-.76,1-.72,2.58-.73,3.88-1.07-.63,1.27-.95,3-2,3.73a15,15,0,0,1-13.84,2.45,7.18,7.18,0,0,0-6.27.92c-1.85,1.08-4.51.87-6.81.94-.4,0-.83-1.49-1.25-2.29a12.06,12.06,0,0,1,2.15-.83c1.64-.27,3.31-.4,4.08-.49-1.71-4.72-3.35-8.8-4.58-13-.27-.92.91-2.27,1.43-3.42Z"/><path class="cls-1" d="M46,30.54c-3.38-.17-6.21,0-8.88-.61-1-.21-1.57-2.15-2.34-3.3a10.87,10.87,0,0,1,3.3.18c4.8,1.79,9.67-1.89,9.85-7.43a13.28,13.28,0,0,1,1.16-3.55,17,17,0,0,1,2.09,3.63,4.65,4.65,0,0,1-.35,3.34,12,12,0,0,0-1.62,8.89,3.59,3.59,0,0,1-.75,2.81,23.75,23.75,0,0,1-3.86,2.61c.21-1.27.4-2.54.66-3.79C45.44,32.38,45.73,31.46,46,30.54Z"/><path class="cls-1" d="M33.46,89.13l-1.58,3.71c-.8-1.29-2.16-2.53-2.3-3.88-.92-9.1,8.23-17.41,16.75-15.34a10.06,10.06,0,0,1,3.83,1.79c.7.56.83,1.82,1.21,2.76-1,0-2.13.38-2.92,0C40.72,74.54,32.24,80.3,33.46,89.13Z"/><path class="cls-1" d="M32.89,100.42c5.3,0,10.24,2.58,11.37,6.23.4,1.3-.47,3-.75,4.5a14.13,14.13,0,0,1-2.13-2.82C40,105,35.29,103.1,31.07,104.09c-1.23.28-2.62-.19-3.94-.31a23.59,23.59,0,0,1,3.26-2.93A5.92,5.92,0,0,1,32.89,100.42Z"/></g></g></svg>