<svg xmlns="http://www.w3.org/2000/svg" viewBox="0 0 128.34 131.15"><defs><style>.cls-1{fill:#450a5a;}</style></defs><g id="Layer_2" data-name="Layer 2"><g id="Layer_1-2" data-name="Layer 1"><path class="cls-1" d="M17.4,46.68A46.79,46.79,0,1,1,64,93.58,46.93,46.93,0,0,1,17.4,46.68ZM64.18,85.59A38.8,38.8,0,1,0,25.39,46.77,38.91,38.91,0,0,0,64.18,85.59Z"/><path class="cls-1" d="M16.67,117.6c-2.18-2.85-4.37-5.68-6.52-8.53s-4.24-5.8-6.43-8.64C.31,96-.48,90.86.25,85.55c1.1-8.08,2.5-16.11,3.86-24.14A10.59,10.59,0,0,1,5.49,57.7a3.57,3.57,0,0,1,6.22.13,8.93,8.93,0,0,1,1,3.94c.12,4.5,0,9,0,13.45.19.13.27.23.34.23,4.21-.12,5.43.72,6.81,4.67,1,2.81,1.94,5.62,2.95,8.41a2.4,2.4,0,0,0,.81,1.22c7.51,4.41,11.44,11.36,13.84,19.41.22.74.42,1.23,1.38,1.25a2.94,2.94,0,0,1,2.74,2.14c1.32,3.77,2.6,7.56,3.93,11.32.4,1.13-.13,1.71-1,2.25a35.16,35.16,0,0,1-20.92,4.93c-1.88-.12-3.75-.51-5.63-.76a2.11,2.11,0,0,1-1.94-1.67c-.52-1.72-1.17-3.39-1.76-5.08C13.12,120.11,13.42,119.35,16.67,117.6Zm18.77-6.32c-.42-1.34-.73-2.53-1.15-3.67-2.35-6.41-5.76-12-11.85-15.59a4.77,4.77,0,0,1-1.87-2.22c-1.26-3.3-2.32-6.68-3.52-10a2.52,2.52,0,0,0-3.3-1.7,2.58,2.58,0,0,0-1.63,3.35c.2.74.48,1.46.73,2.18,1.64,4.75,3.31,9.48,4.9,14.25a2.17,2.17,0,0,1-.25,1.65,1.37,1.37,0,0,1-1.34.2,3.07,3.07,0,0,1-.95-1.48c-1.61-4.54-3.13-9.11-4.76-13.65-.82-2.3-1.69-4.55-.3-6.94a1.93,1.93,0,0,0,.07-.91c0-4.93,0-9.85,0-14.78a6.43,6.43,0,0,0-.52-2.53c-.53-1.17-1.6-1.2-2.2-.06a9.35,9.35,0,0,0-.9,2.75C5.34,69.67,4.11,77.21,2.94,84.76c-.68,4.4-.71,8.87,1.93,12.63,4.47,6.38,9.29,12.52,14,18.74a1.46,1.46,0,0,0,1.24.45C25.16,114.88,30.18,113.11,35.44,111.28Zm-18.29,12,22.66-7.84c-.73-2.66-.73-2.66-3.16-1.82L18.23,120C15.85,120.81,15.85,120.85,17.15,123.27Z"/><path class="cls-1" d="M111.66,117.66c3.19,1.47,3.58,2.44,2.48,5.65-.62,1.8-1.15,3.63-1.91,5.36a2.83,2.83,0,0,1-1.63,1.54c-9.28,2-18.14.91-26.46-3.87A2.17,2.17,0,0,1,83,123.21c1.18-3.12,2.29-6.26,3.29-9.44.67-2.12,1.67-3.64,4.19-3.4a40.3,40.3,0,0,1,5.57-12.53A27.3,27.3,0,0,1,104.23,90a3.62,3.62,0,0,0,1.36-1.7c1-2.48,1.78-5,2.65-7.54,1.61-4.69,2.44-5.3,7.37-5.38,0-4.34,0-8.7,0-13.05a13.19,13.19,0,0,1,.21-2.59c.53-2.31,1.86-3.6,3.73-3.74s3.44.81,4.08,3.22c.81,3,1.31,6.1,1.82,9.18.93,5.57,1.85,11.13,2.61,16.72s.09,10.65-3.36,15.21c-3.84,5.07-7.65,10.17-11.48,15.25C112.74,116.25,112.25,116.9,111.66,117.66ZM93,111.31c5.17,1.79,10.24,3.57,15.33,5.27.34.11,1-.28,1.31-.63,4.27-5.59,8.46-11.23,12.74-16.81a16.83,16.83,0,0,0,3.16-13.09c-1-7.11-2.18-14.19-3.33-21.27A35.6,35.6,0,0,0,121.18,60c-.18-.56-.92-1-1.4-1.42a8.17,8.17,0,0,0-1.36,1.67,5.06,5.06,0,0,0-.26,2q0,7.15,0,14.32a4.85,4.85,0,0,0,.33,1.78,5.68,5.68,0,0,1,.11,4.34q-2.74,7.92-5.48,15.83c-.3.89-.72,1.72-1.84,1.34s-.93-1.27-.62-2.17c1.33-3.77,2.63-7.55,3.93-11.33.59-1.7,1.25-3.37,1.69-5.11a2.46,2.46,0,0,0-3.22-3.06,3.94,3.94,0,0,0-1.84,2c-1.27,3.29-2.33,6.67-3.56,10a3.38,3.38,0,0,1-1.4,1.67,24.33,24.33,0,0,0-9,9A34.35,34.35,0,0,0,93,111.31ZM88.5,115.4l23,8c-.08-1.21,1.66-2.34-.42-3.06-6.87-2.38-13.74-4.74-20.59-7.14-.81-.28-1.27-.11-1.49.73C88.89,114.33,88.72,114.76,88.5,115.4Z"/><path class="cls-1" d="M56.44,48.08a8,8,0,1,1,8.08-7.94A8,8,0,0,1,56.44,48.08Z"/><path class="cls-1" d="M89.16,64.54a8,8,0,1,1-8.09-7.93A8,8,0,0,1,89.16,64.54Z"/><path class="cls-1" d="M56.12,21.8a5,5,0,1,1-4.9-5.11A5.11,5.11,0,0,1,56.12,21.8Z"/><path class="cls-1" d="M63.6,67.85a5,5,0,1,1-4.87-5.25A5,5,0,0,1,63.6,67.85Z"/><path class="cls-1" d="M41.5,45.55a5,5,0,1,1-5,5A5,5,0,0,1,41.5,45.55Z"/><path class="cls-1" d="M79.9,37.77a5,5,0,1,1,4.95,5A5,5,0,0,1,79.9,37.77Z"/><path class="cls-1" d="M69.15,20.49a10.66,10.66,0,0,1,2.43.05c.48.12,1.22.77,1.17,1.05a2,2,0,0,1-1.13,1.31,9.07,9.07,0,0,1-2.49.06,8.76,8.76,0,0,1,0,2.37c-.15.51-.76.9-1.16,1.34-.42-.43-1-.79-1.21-1.3a8.67,8.67,0,0,1,0-2.38,6.73,6.73,0,0,1-2.12,0A6.18,6.18,0,0,1,63,21.67a5.81,5.81,0,0,1,1.52-1.15,7.62,7.62,0,0,1,2.17,0c0-.78,0-1.42,0-2.06,0-.87.24-1.58,1.23-1.6s1.28.65,1.27,1.54C69.14,19,69.15,19.58,69.15,20.49Z"/><path class="cls-1" d="M70.37,51.77A10.59,10.59,0,0,1,68,51.72c-.49-.13-.85-.7-1.27-1.07.4-.45.72-1.13,1.22-1.29a8.58,8.58,0,0,1,2.47-.06,6.83,6.83,0,0,1,0-2A7.37,7.37,0,0,1,71.6,45.6a7,7,0,0,1,1.21,1.61,6.56,6.56,0,0,1,0,2.08,7.79,7.79,0,0,1,2.28.05c.55.18.94.82,1.4,1.26-.45.39-.84,1-1.36,1.12a8.76,8.76,0,0,1-2.33.05,9.26,9.26,0,0,1,0,2.38c-.15.51-.76.88-1.16,1.32-.42-.43-1.06-.78-1.21-1.29A9,9,0,0,1,70.37,51.77Z"/><path class="cls-1" d="M40.23,65.88a6.52,6.52,0,0,1-2.1,0,6.31,6.31,0,0,1-1.59-1.27,5.87,5.87,0,0,1,1.53-1.14,7.56,7.56,0,0,1,2.16,0A8.86,8.86,0,0,1,40.29,61c.15-.51.79-.87,1.21-1.29.41.43,1,.79,1.17,1.3a8.89,8.89,0,0,1,0,2.39,10.12,10.12,0,0,1,2.51.06c.46.12,1.1.74,1.1,1.13a1.69,1.69,0,0,1-1,1.21,10,10,0,0,1-2.55,0,8.91,8.91,0,0,1,0,2.33c-.15.53-.74.93-1.13,1.39-.44-.47-1.07-.87-1.27-1.43A7.5,7.5,0,0,1,40.23,65.88Z"/><path class="cls-1" d="M92.31,52.9c-.78.09-1.48,1.48-2.64.34s.19-1.78.78-2.61c-.3-.91-2-1.62-.75-2.81s1.83.4,2.7.81c.86-.45,1.52-2,2.7-.78s-.29,1.86-.8,2.67c.52.91,2,1.7.73,2.7C94.52,53.62,93.24,53,92.31,52.9Z"/><path class="cls-1" d="M63.74,77.73c-.1-.91-1.56-1.59-.37-2.76s1.78.22,2.62.8c.91-.27,1.58-2,2.79-.77s-.32,1.86-.82,2.72c.52.84,2,1.54.81,2.68s-1.81-.11-2.6-.75c-1,.33-1.83,2.09-2.9.56C62.93,79.73,63.56,78.57,63.74,77.73Z"/><path class="cls-1" d="M39.6,36c-.84.49-1.62,2-2.64.68-.39-.49.15-1.7.52-2.57-.09-.91-1.78-1.6-.51-2.8s1.84.41,2.71.83c.85-.51,1.6-2,2.65-.73.39.47-.15,1.71-.51,2.58.15.89,1.75,1.68.46,2.74-.47.39-1.7-.14-2.58-.25Z"/></g></g></svg>