<svg xmlns="http://www.w3.org/2000/svg" viewBox="0 0 66.49 130"><defs><style>.cls-1{fill:#450a5a;}</style></defs><g id="Layer_2" data-name="Layer 2"><g id="Layer_1-2" data-name="Layer 1"><path class="cls-1" d="M27.1,76.65c-9.87-.25-20.87-12.18-15-23.94a34.25,34.25,0,0,1,2.7-4.45Q31.43,25,48.08,1.8c1.59-2.23,2.42-2.34,4.57-.61s4.18,3.36,6.24,5.06c1.5,1.24,1.55,2.1.28,3.55-6.78,7.82-13.43,15.75-19.09,24.44-1.28,2-2.36,4.06-3.59,6.06-2.83,4.6-3.15,9.57-2.1,14.69.4,2,1.23,3.85,1.63,5.82a48.85,48.85,0,0,1,1.2,8,6.17,6.17,0,0,1-4.08,6.07A53,53,0,0,1,27.1,76.65Z"/><path class="cls-1" d="M33.18,78.12c4.77.38,9,2.23,10,8.1a30.42,30.42,0,0,1,.56,3.91,12.47,12.47,0,0,0,2.59,7c3.87,5,7.72,10.08,11.68,15,2.38,3,5,5.78,7.44,8.68,1.39,1.63,1.33,2.55-.26,3.93s-3.14,2.7-4.73,4c-1.93,1.63-2.63,1.52-4.34-.3-5.5-5.87-11-11.76-16.6-17.51a51.51,51.51,0,0,0-12.17-9.3,28.05,28.05,0,0,1-6.5-5.1,6.3,6.3,0,0,1-.07-9.15,64.53,64.53,0,0,1,7.53-7.17C29.91,79.1,32,78.62,33.18,78.12Z"/><path class="cls-1" d="M0,76.92a13.75,13.75,0,0,1,2.47-7.69C4,67,6,66.2,8,66.77a5.4,5.4,0,0,1,3.61,5.08,18,18,0,0,1-.56,4.3c-.61,2.72-.13,3.86,2.37,5.13,1,.48,1.95.94,2.86,1.51,3.13,2,3.37,5.33.58,7.76a8,8,0,0,1-10.6,0c-3.43-2.92-4.8-7-5.89-11.16A19,19,0,0,1,0,76.92Z"/></g></g></svg>