<svg xmlns="http://www.w3.org/2000/svg" viewBox="0 0 131.5 106.78"><defs><style>.cls-1{fill:#450a5a;}</style></defs><g id="Layer_2" data-name="Layer 2"><g id="Layer_1-2" data-name="Layer 1"><path class="cls-1" d="M34.5,76.4c.17,2.69.35,5.07.46,7.45C35,85,35.3,86,36.57,86.08s1.62-1,1.77-2.08c.42-3.19.82-6.39,1.29-9.57a6.35,6.35,0,0,1,.71-2.18c1.69-3,3.5-6,5.14-9a6.48,6.48,0,0,0,.75-3c-.15-6.88-.43-13.76-.59-20.63a2.39,2.39,0,0,1,.81-1.67q6.38-5.26,12.86-10.41a3.43,3.43,0,0,0,1.42-3c0-7.47,0-14.94,0-22.41C60.71.17,60.88,0,62.82,0h5.71c1.81,0,2,.21,2,2,0,7.37,0,14.74,0,22.11a4,4,0,0,0,1.71,3.57c4.07,3.12,8,6.4,12.06,9.54a3,3,0,0,1,1.34,2.79q-.4,10.1-.6,20.2a6.15,6.15,0,0,0,.74,2.89c1.45,2.71,2.93,5.41,4.62,8,1.18,1.78,1.31,3.74,1.59,5.7.35,2.36.63,4.73.93,7.1.14,1,.39,2,1.67,2s1.57-.89,1.64-2c.14-2.48.36-5,.56-7.62,3.06,1.31,5.95,2.74,9,3.77a8.16,8.16,0,0,1,5.71,5.6,46.63,46.63,0,0,0,2.17,4.79c.46,1,1.19,1.59,2.31,1.23s1.22-1.29,1-2.28c-.84-3.51-1.72-7-2.53-10.52-.27-1.18-1.14-1.62-2.09-2-5-2.13-10.06-4.25-15.06-6.43a3.86,3.86,0,0,1-1.58-1.36C94.22,66.74,92.8,64.4,91.53,62a6.73,6.73,0,0,1-.79-3.13c.08-5.17.3-10.34.49-15.86,1.48,1.18,2.71,2.32,4.09,3.24A7,7,0,0,1,98.38,51c.69,3.24,1.68,6.41,2.46,9.63a3.44,3.44,0,0,0,2.52,2.73c3.18,1,6.33,2,9.5,2.93,1.48.46,2.53.06,2.91-1s-.1-2.1-1.5-2.75c-2.3-1.08-4.57-2.19-6.91-3.17a2.64,2.64,0,0,1-1.71-2.11c-.62-2.74-1.35-5.46-2.07-8.33l6.09-.72c.34,0,.69,0,1-.11a2.42,2.42,0,0,0,2.24-2.73,2.31,2.31,0,0,0-2.63-2c-2.34.06-4.69.12-7,.33a4.62,4.62,0,0,1-3.83-1.19c-2.44-2.16-5-4.14-7.73-6.3.48-.28.83-.5,1.19-.68,2.85-1.39,5.7-2.76,8.54-4.16.94-.47,1.68-1.12,1.18-2.31s-1.38-1.16-2.44-.82c-4,1.28-8,2.49-12,3.79a2.18,2.18,0,0,1-2.35-.46c-2.82-2.34-5.68-4.62-8.56-6.88-.67-.52-1-1-.59-1.83.54-1.25.91-2.58,1.49-3.81,3-6.26,7.15-8.24,13.93-6.75,10,2.2,17.18,8.2,22.64,16.56s8.77,17.7,11.24,27.33a177.31,177.31,0,0,1,5.44,34.18,46.92,46.92,0,0,1-.53,9.76c-.85,5.41-4.08,7.63-9.4,6.44A86.74,86.74,0,0,1,110.06,103a86.62,86.62,0,0,0-23-5.39C81,97.07,77.25,93.87,75.63,88a69.56,69.56,0,0,1-2.24-18c-.09-9.27.13-18.54.29-27.81a3,3,0,0,0-1.2-2.76c-1.79-1.35-3.52-2.78-5.23-4.23a2.12,2.12,0,0,0-3.12,0c-1.75,1.48-3.53,2.94-5.36,4.32a2.68,2.68,0,0,0-1.07,2.51c.15,9.17.46,18.35.27,27.52a101.06,101.06,0,0,1-1.74,16.26c-1.54,8.13-4.55,11-12.76,11.86a101,101,0,0,0-24.73,6.21,56.39,56.39,0,0,1-8.12,2.4C4,107.69.58,105.26.17,98.54a92,92,0,0,1,.31-15A172.49,172.49,0,0,1,7.14,49.85C9.86,41.1,13.37,32.71,19.05,25.4S32,13.34,41.23,11.93c4.89-.74,8.69.93,11.13,5.21a41,41,0,0,1,2.49,5.91,1.48,1.48,0,0,1-.39,1.3c-3,2.52-6.12,5-9.25,7.41a2.17,2.17,0,0,1-1.69.17c-4-1.2-8-2.46-12-3.75-1.1-.35-2.08-.42-2.6.78s.26,1.88,1.29,2.37c3.15,1.52,6.29,3.06,9.67,4.7-1.54,1.26-2.91,2.39-4.3,3.5-1.67,1.35-3.17,3.22-5.08,3.87s-4.23.06-6.36,0c-1,0-2.05-.11-3.07-.14a2.29,2.29,0,0,0-2.62,2A2.33,2.33,0,0,0,20.53,48c2,.31,4.06.48,6.1.72.33,0,.65.11,1.17.2-.81,3.18-1.56,6.3-2.41,9.38-.1.36-.67.67-1.08.86-2.47,1.17-5,2.28-7.44,3.43-1.34.62-1.77,1.51-1.29,2.66a1.92,1.92,0,0,0,2.64,1.12c3.53-1.09,7.09-2.13,10.59-3.34a2.89,2.89,0,0,0,1.48-1.75c1.14-4,2.12-8,3.23-12a3.81,3.81,0,0,1,1.12-1.77c1.62-1.44,3.34-2.77,5-4.15l.52.13c0,2.86,0,5.72,0,8.58a20.87,20.87,0,0,0,.09,3.36c.69,3.79-.66,6.91-2.47,10.17s-4,5.55-7.65,6.77c-3.78,1.26-7.37,3.07-11.07,4.59a3.64,3.64,0,0,0-2.44,2.81c-.68,3.24-1.49,6.46-2.3,9.67a1.8,1.8,0,0,0,1.17,2.46c1.1.37,1.69-.43,2.11-1.33C18.8,88,20,85.47,21.14,83c.2-.42.45-1,.82-1.13C26,80,30.16,78.27,34.5,76.4Z"/></g></g></svg>